<?xml version="1.0" encoding="UTF-8"?>
<svg xmlns="http://www.w3.org/2000/svg" xmlns:xlink="http://www.w3.org/1999/xlink" width="50px" height="50px" viewBox="0 0 50 49" version="1.1">
<defs>
<clipPath id="clip1">
  <path d="M 0.0234375 0 L 49.953125 0 L 49.953125 48.980469 L 0.0234375 48.980469 Z M 0.0234375 0 "/>
</clipPath>
<clipPath id="clip2">
  <path d="M 9.46875 17.453125 L 40.511719 17.453125 L 40.511719 26.03125 L 9.46875 26.03125 Z M 9.46875 17.453125 "/>
</clipPath>
<clipPath id="clip3">
  <path d="M 9.46875 28.054688 L 40.511719 28.054688 L 40.511719 31.527344 L 9.46875 31.527344 Z M 9.46875 28.054688 "/>
</clipPath>
</defs>
<g id="surface1">
<g clip-path="url(#clip1)" clip-rule="nonzero">
<path style="fill-rule:nonzero;fill:rgb(27.843137%,56.470588%,98.823529%);fill-opacity:1;stroke-width:1;stroke-linecap:butt;stroke-linejoin:miter;stroke:rgb(100%,100%,100%);stroke-opacity:1;stroke-miterlimit:4;" d="M -0.0106554 171.417969 C -0.0106554 76.753906 76.75877 0.000000000000007444 171.419603 0.000000000000007444 C 266.107259 0.000000000000007444 342.849861 76.753906 342.849861 171.417969 C 342.849861 266.109375 266.107259 342.863281 171.419603 342.863281 C 76.75877 342.863281 -0.0106554 266.109375 -0.0106554 171.417969 Z M 171.419603 337.449219 C 263.103005 337.449219 337.431474 263.101562 337.431474 171.417969 C 337.431474 79.734375 263.103005 5.414063 171.419603 5.414063 C 79.736201 5.414063 5.407732 79.734375 5.407732 171.417969 C 5.407732 263.101562 79.736201 337.449219 171.419603 337.449219 Z M 171.419603 337.449219 " transform="matrix(0.145627,0,0,0.142857,0.0249892,-0.000000000000001063)"/>
</g>
<path style=" stroke:none;fill-rule:nonzero;fill:rgb(27.843137%,56.470588%,98.823529%);fill-opacity:1;" d="M 48.953125 24.488281 C 48.953125 11.503906 38.226562 0.980469 24.988281 0.980469 C 11.753906 0.980469 1.023438 11.503906 1.023438 24.488281 C 1.023438 37.472656 11.753906 48 24.988281 48 C 38.226562 48 48.953125 37.472656 48.953125 24.488281 Z M 48.953125 24.488281 "/>
<g clip-path="url(#clip2)" clip-rule="nonzero">
<path style=" stroke:none;fill-rule:nonzero;fill:rgb(100%,100%,100%);fill-opacity:1;" d="M 12.246094 26.03125 C 11.691406 26.03125 11.175781 25.925781 10.703125 25.722656 C 10.226562 25.515625 9.816406 25.234375 9.46875 24.878906 L 10.074219 24.191406 C 10.355469 24.484375 10.6875 24.722656 11.070312 24.898438 C 11.453125 25.078125 11.847656 25.164062 12.257812 25.164062 C 12.78125 25.164062 13.191406 25.046875 13.480469 24.8125 C 13.769531 24.582031 13.914062 24.277344 13.914062 23.898438 C 13.914062 23.699219 13.878906 23.53125 13.8125 23.390625 C 13.742188 23.253906 13.652344 23.136719 13.535156 23.035156 C 13.417969 22.9375 13.277344 22.851562 13.117188 22.769531 C 12.957031 22.691406 12.78125 22.609375 12.597656 22.523438 L 11.460938 22.035156 C 11.277344 21.957031 11.089844 21.863281 10.894531 21.753906 C 10.703125 21.640625 10.527344 21.507812 10.375 21.347656 C 10.222656 21.191406 10.097656 21.003906 10 20.785156 C 9.90625 20.570312 9.855469 20.320312 9.855469 20.035156 C 9.855469 19.742188 9.917969 19.46875 10.042969 19.214844 C 10.167969 18.964844 10.339844 18.746094 10.5625 18.558594 C 10.785156 18.371094 11.046875 18.230469 11.347656 18.125 C 11.648438 18.023438 11.980469 17.972656 12.34375 17.972656 C 12.820312 17.972656 13.257812 18.0625 13.660156 18.242188 C 14.0625 18.417969 14.40625 18.648438 14.6875 18.933594 L 14.144531 19.570312 C 13.902344 19.34375 13.636719 19.164062 13.34375 19.03125 C 13.046875 18.902344 12.714844 18.835938 12.34375 18.835938 C 11.902344 18.835938 11.546875 18.9375 11.277344 19.136719 C 11.007812 19.339844 10.871094 19.621094 10.871094 19.976562 C 10.871094 20.164062 10.910156 20.324219 10.988281 20.453125 C 11.0625 20.585938 11.164062 20.699219 11.292969 20.796875 C 11.421875 20.898438 11.5625 20.984375 11.714844 21.058594 C 11.871094 21.132812 12.027344 21.203125 12.1875 21.265625 L 13.308594 21.742188 C 13.535156 21.835938 13.75 21.945312 13.949219 22.066406 C 14.152344 22.1875 14.324219 22.332031 14.46875 22.492188 C 14.613281 22.65625 14.730469 22.84375 14.816406 23.058594 C 14.898438 23.277344 14.941406 23.53125 14.941406 23.8125 C 14.941406 24.121094 14.878906 24.410156 14.753906 24.679688 C 14.628906 24.949219 14.449219 25.183594 14.214844 25.382812 C 13.984375 25.585938 13.699219 25.742188 13.371094 25.855469 C 13.039062 25.972656 12.667969 26.03125 12.246094 26.03125 Z M 17.394531 25.886719 L 16.402344 25.886719 L 16.402344 17.453125 L 17.394531 17.453125 L 17.394531 19.75 L 17.355469 20.933594 C 17.636719 20.675781 17.933594 20.449219 18.238281 20.265625 C 18.542969 20.078125 18.902344 19.988281 19.3125 19.988281 C 19.933594 19.988281 20.386719 20.175781 20.671875 20.554688 C 20.957031 20.933594 21.101562 21.496094 21.101562 22.238281 L 21.101562 25.886719 L 20.109375 25.886719 L 20.109375 22.367188 C 20.109375 21.824219 20.023438 21.429688 19.84375 21.1875 C 19.667969 20.949219 19.386719 20.828125 19 20.828125 C 18.695312 20.828125 18.421875 20.902344 18.191406 21.054688 C 17.957031 21.203125 17.691406 21.425781 17.394531 21.714844 Z M 25.257812 26.03125 C 24.894531 26.03125 24.550781 25.960938 24.222656 25.828125 C 23.898438 25.695312 23.609375 25.5 23.359375 25.242188 C 23.109375 24.984375 22.910156 24.667969 22.761719 24.292969 C 22.613281 23.917969 22.539062 23.492188 22.539062 23.019531 C 22.539062 22.539062 22.613281 22.109375 22.761719 21.734375 C 22.910156 21.359375 23.109375 21.042969 23.359375 20.78125 C 23.609375 20.519531 23.898438 20.324219 24.222656 20.1875 C 24.550781 20.054688 24.894531 19.988281 25.257812 19.988281 C 25.617188 19.988281 25.960938 20.054688 26.289062 20.1875 C 26.613281 20.324219 26.902344 20.519531 27.152344 20.78125 C 27.402344 21.042969 27.601562 21.359375 27.75 21.734375 C 27.898438 22.109375 27.972656 22.539062 27.972656 23.019531 C 27.972656 23.492188 27.898438 23.917969 27.75 24.292969 C 27.601562 24.667969 27.402344 24.984375 27.152344 25.242188 C 26.902344 25.5 26.613281 25.695312 26.289062 25.828125 C 25.960938 25.960938 25.617188 26.03125 25.257812 26.03125 Z M 25.257812 25.222656 C 25.503906 25.222656 25.734375 25.171875 25.945312 25.0625 C 26.152344 24.957031 26.332031 24.808594 26.480469 24.613281 C 26.628906 24.417969 26.746094 24.1875 26.828125 23.921875 C 26.90625 23.652344 26.945312 23.351562 26.945312 23.019531 C 26.945312 22.6875 26.90625 22.386719 26.828125 22.113281 C 26.746094 21.839844 26.628906 21.605469 26.480469 21.410156 C 26.332031 21.210938 26.152344 21.058594 25.945312 20.953125 C 25.734375 20.84375 25.503906 20.792969 25.257812 20.792969 C 25.007812 20.792969 24.777344 20.84375 24.566406 20.953125 C 24.359375 21.058594 24.179688 21.210938 24.027344 21.410156 C 23.878906 21.605469 23.765625 21.839844 23.6875 22.113281 C 23.605469 22.386719 23.566406 22.6875 23.566406 23.019531 C 23.566406 23.351562 23.605469 23.652344 23.6875 23.921875 C 23.765625 24.1875 23.878906 24.417969 24.027344 24.613281 C 24.179688 24.808594 24.359375 24.957031 24.566406 25.0625 C 24.777344 25.171875 25.007812 25.222656 25.257812 25.222656 Z M 31.871094 23.292969 L 29.09375 23.292969 L 29.09375 22.546875 L 31.871094 22.546875 Z M 34.445312 25.886719 L 33.441406 25.886719 L 33.441406 18.113281 L 38.007812 18.113281 L 38.007812 18.945312 L 34.445312 18.945312 L 34.445312 21.574219 L 37.464844 21.574219 L 37.464844 22.402344 L 34.445312 22.402344 Z M 40.304688 25.886719 L 39.3125 25.886719 L 39.3125 20.128906 L 40.304688 20.128906 Z M 39.820312 18.945312 C 39.628906 18.945312 39.464844 18.886719 39.328125 18.765625 C 39.199219 18.648438 39.132812 18.496094 39.132812 18.316406 C 39.132812 18.125 39.199219 17.972656 39.328125 17.859375 C 39.464844 17.746094 39.628906 17.6875 39.820312 17.6875 C 40.011719 17.6875 40.175781 17.746094 40.308594 17.859375 C 40.441406 17.972656 40.507812 18.125 40.507812 18.316406 C 40.507812 18.496094 40.441406 18.648438 40.308594 18.765625 C 40.175781 18.886719 40.011719 18.945312 39.820312 18.945312 Z M 39.820312 18.945312 "/>
</g>
<g clip-path="url(#clip3)" clip-rule="nonzero">
<path style=" stroke:none;fill-rule:nonzero;fill:rgb(100%,100%,100%);fill-opacity:1;" d="M 10.625 31.527344 C 10.378906 31.527344 10.15625 31.480469 9.960938 31.386719 C 9.769531 31.292969 9.605469 31.171875 9.46875 31.023438 L 9.625 30.863281 C 9.75 31 9.898438 31.109375 10.070312 31.191406 C 10.242188 31.273438 10.429688 31.3125 10.625 31.3125 C 10.886719 31.3125 11.097656 31.253906 11.246094 31.128906 C 11.398438 31.003906 11.476562 30.84375 11.476562 30.644531 C 11.476562 30.539062 11.460938 30.449219 11.425781 30.375 C 11.394531 30.304688 11.351562 30.238281 11.292969 30.1875 C 11.238281 30.136719 11.175781 30.089844 11.101562 30.054688 C 11.027344 30.015625 10.945312 29.976562 10.863281 29.941406 L 10.347656 29.710938 C 10.273438 29.683594 10.195312 29.644531 10.113281 29.601562 C 10.03125 29.554688 9.953125 29.5 9.886719 29.433594 C 9.820312 29.367188 9.761719 29.292969 9.71875 29.199219 C 9.671875 29.113281 9.652344 29.003906 9.652344 28.878906 C 9.652344 28.757812 9.675781 28.644531 9.726562 28.546875 C 9.777344 28.445312 9.847656 28.359375 9.933594 28.285156 C 10.023438 28.214844 10.128906 28.15625 10.25 28.117188 C 10.371094 28.074219 10.503906 28.054688 10.648438 28.054688 C 10.855469 28.054688 11.039062 28.09375 11.199219 28.175781 C 11.359375 28.253906 11.492188 28.347656 11.59375 28.457031 L 11.460938 28.609375 C 11.359375 28.507812 11.242188 28.425781 11.109375 28.363281 C 10.972656 28.300781 10.820312 28.269531 10.648438 28.269531 C 10.417969 28.269531 10.234375 28.324219 10.097656 28.429688 C 9.957031 28.539062 9.890625 28.683594 9.890625 28.867188 C 9.890625 28.964844 9.910156 29.050781 9.945312 29.117188 C 9.984375 29.183594 10.03125 29.242188 10.09375 29.292969 C 10.152344 29.34375 10.214844 29.382812 10.285156 29.417969 C 10.351562 29.457031 10.417969 29.488281 10.480469 29.515625 L 11 29.738281 C 11.097656 29.777344 11.1875 29.824219 11.273438 29.875 C 11.359375 29.925781 11.4375 29.984375 11.5 30.054688 C 11.566406 30.121094 11.621094 30.203125 11.660156 30.292969 C 11.699219 30.386719 11.71875 30.5 11.71875 30.628906 C 11.71875 30.757812 11.695312 30.875 11.640625 30.984375 C 11.589844 31.097656 11.515625 31.191406 11.421875 31.269531 C 11.328125 31.351562 11.210938 31.414062 11.078125 31.457031 C 10.941406 31.503906 10.792969 31.527344 10.625 31.527344 Z M 12.671875 31.464844 L 12.433594 31.464844 L 12.433594 28.117188 L 12.671875 28.117188 L 12.671875 29.585938 L 14.503906 29.585938 L 14.503906 28.117188 L 14.742188 28.117188 L 14.742188 31.464844 L 14.503906 31.464844 L 14.503906 29.789062 L 12.671875 29.789062 Z M 16.933594 31.527344 C 16.730469 31.527344 16.539062 31.484375 16.367188 31.402344 C 16.195312 31.320312 16.046875 31.203125 15.921875 31.050781 C 15.796875 30.898438 15.703125 30.714844 15.632812 30.496094 C 15.5625 30.28125 15.527344 30.042969 15.527344 29.777344 C 15.527344 29.515625 15.5625 29.277344 15.632812 29.0625 C 15.703125 28.851562 15.796875 28.671875 15.921875 28.519531 C 16.046875 28.367188 16.195312 28.253906 16.367188 28.175781 C 16.539062 28.09375 16.730469 28.054688 16.933594 28.054688 C 17.140625 28.054688 17.332031 28.09375 17.503906 28.175781 C 17.675781 28.253906 17.824219 28.367188 17.949219 28.519531 C 18.074219 28.671875 18.171875 28.851562 18.238281 29.0625 C 18.308594 29.277344 18.34375 29.515625 18.34375 29.777344 C 18.34375 30.042969 18.308594 30.28125 18.238281 30.496094 C 18.171875 30.714844 18.074219 30.898438 17.949219 31.050781 C 17.824219 31.203125 17.675781 31.320312 17.503906 31.402344 C 17.332031 31.484375 17.140625 31.527344 16.933594 31.527344 Z M 16.933594 31.3125 C 17.105469 31.3125 17.261719 31.277344 17.402344 31.203125 C 17.546875 31.132812 17.667969 31.027344 17.769531 30.894531 C 17.871094 30.761719 17.949219 30.597656 18.007812 30.410156 C 18.0625 30.222656 18.089844 30.011719 18.089844 29.777344 C 18.089844 29.546875 18.0625 29.339844 18.007812 29.152344 C 17.949219 28.964844 17.871094 28.808594 17.769531 28.675781 C 17.667969 28.546875 17.546875 28.445312 17.402344 28.375 C 17.261719 28.304688 17.105469 28.269531 16.933594 28.269531 C 16.761719 28.269531 16.601562 28.304688 16.457031 28.375 C 16.316406 28.445312 16.195312 28.546875 16.09375 28.675781 C 15.992188 28.808594 15.914062 28.964844 15.859375 29.152344 C 15.804688 29.339844 15.777344 29.546875 15.777344 29.777344 C 15.777344 30.011719 15.804688 30.222656 15.859375 30.410156 C 15.914062 30.597656 15.992188 30.761719 16.09375 30.894531 C 16.195312 31.027344 16.316406 31.132812 16.457031 31.203125 C 16.601562 31.277344 16.761719 31.3125 16.933594 31.3125 Z M 21.046875 31.464844 L 19.125 31.464844 L 19.125 28.117188 L 20.996094 28.117188 L 20.996094 28.320312 L 19.363281 28.320312 L 19.363281 29.585938 L 20.730469 29.585938 L 20.730469 29.789062 L 19.363281 29.789062 L 19.363281 31.261719 L 21.046875 31.261719 Z M 22.6875 31.527344 C 22.4375 31.527344 22.214844 31.480469 22.023438 31.386719 C 21.828125 31.292969 21.664062 31.171875 21.53125 31.023438 L 21.683594 30.863281 C 21.808594 31 21.957031 31.109375 22.132812 31.191406 C 22.304688 31.273438 22.488281 31.3125 22.6875 31.3125 C 22.949219 31.3125 23.15625 31.253906 23.308594 31.128906 C 23.460938 31.003906 23.535156 30.84375 23.535156 30.644531 C 23.535156 30.539062 23.519531 30.449219 23.488281 30.375 C 23.453125 30.304688 23.410156 30.238281 23.355469 30.1875 C 23.300781 30.136719 23.234375 30.089844 23.160156 30.054688 C 23.085938 30.015625 23.007812 29.976562 22.925781 29.941406 L 22.40625 29.710938 C 22.332031 29.683594 22.253906 29.644531 22.171875 29.601562 C 22.089844 29.554688 22.015625 29.5 21.949219 29.433594 C 21.878906 29.367188 21.824219 29.292969 21.777344 29.199219 C 21.734375 29.113281 21.710938 29.003906 21.710938 28.878906 C 21.710938 28.757812 21.738281 28.644531 21.785156 28.546875 C 21.835938 28.445312 21.90625 28.359375 21.996094 28.285156 C 22.082031 28.214844 22.1875 28.15625 22.3125 28.117188 C 22.433594 28.074219 22.566406 28.054688 22.707031 28.054688 C 22.914062 28.054688 23.097656 28.09375 23.257812 28.175781 C 23.417969 28.253906 23.550781 28.347656 23.65625 28.457031 L 23.519531 28.609375 C 23.421875 28.507812 23.300781 28.425781 23.167969 28.363281 C 23.03125 28.300781 22.878906 28.269531 22.707031 28.269531 C 22.476562 28.269531 22.296875 28.324219 22.15625 28.429688 C 22.019531 28.539062 21.949219 28.683594 21.949219 28.867188 C 21.949219 28.964844 21.96875 29.050781 22.007812 29.117188 C 22.042969 29.183594 22.09375 29.242188 22.152344 29.292969 C 22.210938 29.34375 22.273438 29.382812 22.34375 29.417969 C 22.414062 29.457031 22.476562 29.488281 22.539062 29.515625 L 23.058594 29.738281 C 23.15625 29.777344 23.246094 29.824219 23.332031 29.875 C 23.421875 29.925781 23.496094 29.984375 23.5625 30.054688 C 23.628906 30.121094 23.679688 30.203125 23.71875 30.292969 C 23.757812 30.386719 23.78125 30.5 23.78125 30.628906 C 23.78125 30.757812 23.753906 30.875 23.703125 30.984375 C 23.648438 31.097656 23.578125 31.191406 23.480469 31.269531 C 23.386719 31.351562 23.273438 31.414062 23.136719 31.457031 C 23.003906 31.503906 22.851562 31.527344 22.6875 31.527344 Z M 25.769531 31.464844 L 25.53125 31.464844 L 25.53125 28.117188 L 27.390625 28.117188 L 27.390625 28.320312 L 25.769531 28.320312 L 25.769531 29.652344 L 27.144531 29.652344 L 27.144531 29.855469 L 25.769531 29.855469 Z M 28.242188 31.464844 L 28.003906 31.464844 L 28.003906 28.117188 L 28.242188 28.117188 Z M 29.476562 31.464844 L 29.246094 31.464844 L 29.246094 28.117188 L 29.496094 28.117188 L 30.9375 30.480469 L 31.320312 31.144531 L 31.339844 31.144531 C 31.332031 30.984375 31.328125 30.820312 31.320312 30.65625 C 31.3125 30.496094 31.308594 30.332031 31.308594 30.171875 L 31.308594 28.117188 L 31.539062 28.117188 L 31.539062 31.464844 L 31.289062 31.464844 L 29.847656 29.101562 L 29.464844 28.4375 L 29.445312 28.4375 C 29.449219 28.597656 29.457031 28.757812 29.464844 28.910156 C 29.472656 29.066406 29.476562 29.222656 29.476562 29.386719 Z M 33.339844 31.464844 L 32.542969 31.464844 L 32.542969 28.117188 L 33.335938 28.117188 C 33.597656 28.117188 33.828125 28.15625 34.023438 28.234375 C 34.21875 28.3125 34.378906 28.421875 34.507812 28.570312 C 34.636719 28.714844 34.730469 28.890625 34.792969 29.09375 C 34.855469 29.296875 34.886719 29.523438 34.886719 29.777344 C 34.886719 30.03125 34.855469 30.265625 34.792969 30.472656 C 34.730469 30.679688 34.636719 30.859375 34.507812 31.007812 C 34.378906 31.152344 34.21875 31.265625 34.027344 31.347656 C 33.832031 31.425781 33.605469 31.464844 33.339844 31.464844 Z M 32.78125 28.3125 L 32.78125 31.269531 L 33.308594 31.269531 C 33.542969 31.269531 33.742188 31.230469 33.910156 31.160156 C 34.078125 31.085938 34.214844 30.984375 34.320312 30.851562 C 34.429688 30.71875 34.507812 30.5625 34.558594 30.378906 C 34.609375 30.199219 34.636719 30 34.636719 29.777344 C 34.636719 29.5625 34.609375 29.363281 34.558594 29.183594 C 34.507812 29.003906 34.429688 28.851562 34.320312 28.722656 C 34.214844 28.59375 34.078125 28.492188 33.910156 28.421875 C 33.742188 28.351562 33.542969 28.3125 33.308594 28.3125 Z M 37.597656 31.464844 L 35.671875 31.464844 L 35.671875 28.117188 L 37.542969 28.117188 L 37.542969 28.320312 L 35.910156 28.320312 L 35.910156 29.585938 L 37.28125 29.585938 L 37.28125 29.789062 L 35.910156 29.789062 L 35.910156 31.261719 L 37.597656 31.261719 Z M 38.582031 31.464844 L 38.34375 31.464844 L 38.34375 28.117188 L 39.320312 28.117188 C 39.492188 28.117188 39.644531 28.132812 39.78125 28.164062 C 39.921875 28.195312 40.039062 28.25 40.136719 28.320312 C 40.230469 28.390625 40.308594 28.480469 40.359375 28.59375 C 40.414062 28.707031 40.441406 28.839844 40.441406 29 C 40.441406 29.269531 40.363281 29.480469 40.207031 29.632812 C 40.046875 29.785156 39.835938 29.875 39.566406 29.910156 L 40.507812 31.464844 L 40.234375 31.464844 L 39.304688 29.925781 L 38.582031 29.925781 Z M 38.582031 28.3125 L 38.582031 29.734375 L 39.257812 29.734375 C 39.5625 29.734375 39.796875 29.671875 39.957031 29.554688 C 40.117188 29.433594 40.199219 29.246094 40.199219 29 C 40.199219 28.75 40.117188 28.574219 39.953125 28.46875 C 39.792969 28.367188 39.558594 28.3125 39.257812 28.3125 Z M 38.582031 28.3125 "/>
</g>
</g>
</svg>
